/* XPM */
static char *b3e34c6a76254da19ace8cb8e3d0c1bdkLNIgdBT4xzSr3PP[] = {
/* columns rows colors chars-per-pixel */
"60 60 256 2 ",
"   c #020102",
".  c #0C0101",
"X  c #01020B",
"o  c #0C020C",
"O  c #070A08",
"+  c #130201",
"@  c #1B0201",
"#  c #1B010C",
"$  c #160809",
"%  c #030113",
"&  c #0B0213",
"*  c #0C021B",
"=  c #070A16",
"-  c #130113",
";  c #180618",
":  c #191517",
">  c #14130B",
",  c #240202",
"<  c #23020B",
"1  c #290607",
"2  c #370308",
"3  c #260519",
"4  c #380519",
"5  c #271718",
"6  c #31160F",
"7  c #262317",
"8  c #090427",
"9  c #180527",
"0  c #1A1426",
"q  c #1A0837",
"w  c #171438",
"e  c #0A0E31",
"r  c #270726",
"t  c #370527",
"y  c #271526",
"u  c #371626",
"i  c #280A37",
"p  c #380737",
"a  c #231435",
"s  c #37163A",
"d  c #14232B",
"f  c #342930",
"g  c #480206",
"h  c #570304",
"j  c #580419",
"k  c #4C1112",
"l  c #690604",
"z  c #760502",
"x  c #791503",
"c  c #68081B",
"v  c #781618",
"b  c #700F14",
"n  c #482614",
"m  c #712F09",
"M  c #470627",
"N  c #580827",
"B  c #481729",
"V  c #581527",
"C  c #470837",
"Z  c #570837",
"A  c #491537",
"S  c #581738",
"D  c #660928",
"F  c #67152A",
"G  c #781729",
"H  c #690B36",
"J  c #671938",
"K  c #761A38",
"L  c #790D25",
"P  c #4E2D32",
"I  c #7A2228",
"U  c #662438",
"Y  c #7A2539",
"T  c #6C2F32",
"R  c #734710",
"E  c #764B30",
"W  c #5A4B38",
"Q  c #190848",
"!  c #191746",
"~  c #1C1756",
"^  c #120B4F",
"/  c #290A47",
"(  c #2A1648",
")  c #381746",
"_  c #280B56",
"`  c #320D57",
"'  c #291859",
"]  c #371956",
"[  c #370845",
"{  c #192851",
"}  c #392559",
"|  c #33294D",
" . c #161C6B",
".. c #271966",
"X. c #371966",
"o. c #2D1066",
"O. c #1F3575",
"+. c #282667",
"@. c #362568",
"#. c #372875",
"$. c #32346E",
"%. c #440B44",
"&. c #491949",
"*. c #561846",
"=. c #471855",
"-. c #521451",
";. c #671947",
":. c #701B4C",
">. c #472847",
",. c #582A46",
"<. c #482858",
"1. c #543354",
"2. c #792546",
"3. c #7A3649",
"4. c #6F2D53",
"5. c #441866",
"6. c #482766",
"7. c #4E3173",
"8. c #68386C",
"9. c #601F61",
"0. c #384571",
"q. c #2C465D",
"w. c #514557",
"e. c #734F52",
"r. c #504377",
"t. c #6F5167",
"y. c #73686B",
"u. c #871819",
"i. c #8A0F0F",
"p. c #892607",
"a. c #8F3215",
"s. c #A4321B",
"d. c #871928",
"f. c #961A2A",
"g. c #891B36",
"h. c #971A35",
"j. c #840C27",
"k. c #A61D30",
"l. c #872629",
"z. c #9A2929",
"x. c #97382A",
"c. c #872537",
"v. c #962839",
"b. c #993738",
"n. c #893631",
"m. c #A73827",
"M. c #A62937",
"N. c #A73739",
"B. c #B63938",
"V. c #B12E2D",
"C. c #C23938",
"Z. c #8D4C12",
"A. c #A94F15",
"S. c #B86317",
"D. c #925230",
"F. c #A84638",
"G. c #B74839",
"H. c #B0512F",
"J. c #986A2C",
"K. c #B76829",
"L. c #B97739",
"P. c #B16E2E",
"I. c #C85238",
"U. c #C76939",
"Y. c #D07436",
"T. c #CA6D1B",
"R. c #8C1C43",
"E. c #882845",
"W. c #982943",
"Q. c #9A3548",
"!. c #8D3453",
"~. c #AA3648",
"^. c #B53746",
"/. c #A83755",
"(. c #B63B56",
"). c #AA2C49",
"_. c #A43059",
"`. c #C83C4E",
"'. c #C23760",
"]. c #8A4E50",
"[. c #B84749",
"{. c #BA5945",
"}. c #B14954",
"|. c #8C6B53",
" X c #B27249",
".X c #8E5871",
"XX c #B5526B",
"oX c #8D6E6E",
"OX c #AC646B",
"+X c #C75648",
"@X c #C85858",
"#X c #D04D51",
"$X c #CB7555",
"%X c #D06B4F",
"&X c #E47754",
"*X c #D15369",
"=X c #DA6E6A",
"-X c #E8706E",
";X c #E3585C",
":X c #B88135",
">X c #CE8634",
",X c #E88F33",
"<X c #9C8773",
"1X c #B09076",
"2X c #B6884B",
"3X c #D88848",
"4X c #D88856",
"5X c #D89953",
"6X c #CD8E4C",
"7X c #E99252",
"8X c #DEA655",
"9X c #FAB459",
"0X c #EEA752",
"qX c #CF966E",
"wX c #FA9969",
"eX c #ED8F6D",
"rX c #D3A772",
"tX c #E8A666",
"yX c #F7A966",
"uX c #FBB869",
"iX c #FAAB78",
"pX c #FEB977",
"aX c #E7B274",
"sX c #FEC777",
"dX c #F8C26D",
"fX c #343285",
"gX c #1C2F84",
"hX c #513884",
"jX c #334991",
"kX c #5C4A87",
"lX c #AE7889",
"zX c #886686",
"xX c #E77485",
"cX c #AD918A",
"vX c #B8A78E",
"bX c #A798A4",
"nX c #D2888A",
"mX c #F5908C",
"MX c #D8B59A",
"NX c #CBAA92",
"BX c #FDB985",
"VX c #F4B48B",
"CX c #D3B1AA",
"ZX c #F8AFA8",
"AX c #FCC887",
"SX c #FFD38B",
"DX c #FBCA97",
"FX c #FED796",
"GX c #E9C58D",
"HX c #FFE597",
"JX c #F3CEA9",
"KX c #FFECB2",
"LX c #DDC39F",
"PX c #F1D5C5",
"IX c #FCE8DA",
"UX c #D2B1C6",
/* pixels */
"D d.`.f.i.k.#Xk.E.2.H V OXnXe.6 & = X $ 1 1 2 4.:.2 F 2 cX.X< ) 8 q ' @.( Q X._ o.o.#...~ e e e w w 5 @ g d.*Xj.b j j Z ",
"c (.^.i.C.`.k.'._.K J S lXCXe.n o ; : + < t 4 S M J 2.V lXOX4 4 9 9 >.<.) / ] X.X.#...@.} 8 = { e 0 + 2 h [.*Xi.z ~.F F ",
"M.#XM.^.(.*Xk.`./.J A p >.t.5 @ B P < t *.s 1.&.t S S N Y b l u.H M *.S A s i s q ) ] s ) <.r r 0 * ,.U v @Xz.B.-X%X~.c.",
"#X^.~.(.).#X).j.2.S &.} ( ( 3 # oXOXt 4.-.t C M ;.J :.!.g.u.m.x.g.H N N B S M B A 9 &.; r lXt.r ) - S G @X&Xm.mXZX+XeXa.",
"^.^.v.f.}.~.G Z M t / 7.@.( ( * 1.*.p C Z R.G b.M.f.h.h.(.).R.c E.R.g.E.K h j J 4.M C t 3 4.A - i t N c.@Xm.I.&Xs.p.eXU.",
"v.v.L c (.H M *.p } } r.} w ' q =.p C Z E.W.[.;X;X`.k.k.xX_.R._./._.E.}.}.c c L 2.4.t C 4 ; 3 ,.# 3 S !.K [.wXY.i.l U.uX",
":.H c L G N A ) ` ' ] ( a ( ' @.-.Z S E.XXb.@X@XC.`.`.`.*X).).'./.v.g.).XX/.R.:.:.2.Z M t < t.UXzXS ,.J N =XeXI.v l U.uX",
"H ;.Z J t p [ i ' q i 8 9 } / i %.H E.I }.}.[.M.i.V.`.;Xk.).*X'.M.N.N.u.v.}.R.R.H Z 4.;.A A e.cX.XC C S K Q.x.x h D.DXJ.",
"t %.9.9 6.7.9 i i i 8.} 9 p s *.H H E.l.}.I l h d.N.B.I.C.C.V.`.C.;XC.z f.l.Y N ;.Z :.S !.|.T k M A r M S F j J n qX|.2 ",
"%.] _ @.hX^ q 9 9 >.8.i i C M 2.K _.G c I l l.{.b.p.&Xm.p.I.s.C.I.I.Y.;XG.i.c.W.:.2.2.!.F }.F.n.S A t 4 P S -.&.e.n u P ",
"/ ' ' fX#.^ 6.i r A B A ,.!.2.!.2.!.H Y I  X-X$XK.I.S.A.7XA.T.I.S.wX7XI.p.i.u.d.v.~.v N.F.F.m.&XT B t , 4 r 6.<.f , - ; ",
"@.+.hX#.^ ^ @.] s C N Y c Y Y Y H N 2.!.c.eXwX0X,X7XyXpXS.a.A.,X,X&XY.Y.x p.+XG.z *X*XV.m.m.I.iXOX3.J 2 t ) / q + 5 r * ",
"$.+.$.@.^ ' _ 7.=.S F l.f.v.E.c G n.n.b F. XK.wXdX>XsXaXaX8X8XsX5XJ.S.3X>XU.eX%XV.V.C.#XC.wXmXZXnXqXOXV 3 s * | s o o - ",
" .+.+...+.7.@.=.*.N g.u.[.l.g.n.x $XH.H.eX3X5X5XSXsX:XaXFXtXdXSXdXSXGX6X3X&XDXyXwXI.I.I.C.C.I.eXx.Q.n.g < r - t.t.& $ f ",
"( $.+.+.' X.6.C Z L W.d.z.v L F.x ,X7XuXsX8XFXFXSXsX8X:XZ.Z.2X|.E JXKXLXAXP.5XtX4X4XI.u.;X-X*X;X%X{.b.T U B @ # 9 & . 5 ",
"( ! ' 7.~ _ -.3.E.c.v.l.d.mX=XH.7X0X>X9XsX:X2XKXVX X+ m 2XNX1XqX|.P <XKXKXdXHX>XZ.3Xa.s.f.*X`.`.I.B.b.Y V 2 B B 3 y + $ ",
"q 6.kXhX` / ;.!.W.d.G b mXZXVXFXdX9X0XHX8XFXGXNX|.n 1XKXPXPXIXPXIXLX<X1X1XHXKXsXP.,X5Xx i.f.M.'.^.@Xv.v.L c D J M U B , ",
"! 7.hX6.` =.:.!.h.u.l.F.eX&X$XsX>X0XuXsXGXrX|.@ OXNXCX<Xo y o = y.CXPXvXm D.sXuX,X5X5XA.p.i.R.(./.~.Q.K E.R.K g Y !.U 1 ",
"{ 0.#._ _ ] *.E.h.~.d.u.@X+XH.p.>X8XsXAXaXE 1 MXcX@ + + $ . o O > . P NXPXD.R tXsXdXS.a.H.u.L g.I I c Y E.XX_.lXOX3.B 2 ",
"O.0.~ ^ ' 5.C F c.v.d.}.@XG.$XL.9XsXtXHX|.@ MXvX@ + f 6 + . : X : 7   + LX1Xn :XHXSXA.,XwXi.l v.I T E.g J N !.ZXOXB , 1 ",
"O.+.^ ^ 7.=.C H c.d.l.XX@X$XDXFXsX5X5XrX6 e.cX. > < . o . O . =     > 5 + 1XrXJ.HXuXY.6X%XH.l.u.n.ZXlXY 2 k 2 e.P 1 + + ",
"{ ! ~ X.7.6.A 2.Y c.l.I l.qXKXpXsXZ.:X1X@ NXW . 1 . . X O       :   . 5 + n NXqX8XL.3XK.K.eXF.x l.mXxXj V B < @ + . .   ",
"~ ' o.6.7.-.*.2.Y c.G b l.qXaXSXsX6X5XR <XvXO 7 >   O :     =       O . 5 $ 1XNXqXP.5XSXyXU.D.F.u.).F j g t 1 $ + > $ + ",
"^ ..#.#.] [ J Y G G c l n.$XL.AXFXBXaXE MXe.  :   O         X       X X > . P JXGX5X XHX4XZ.iXG.[.h.G K M 2 u # . f W $ ",
"^ +.+.' 7.%.S K W._.L f.f.p.wXpXpXBXrX|.1X+ . X X X                 X =   : + LXDXm P.6XK.h 2Xl b.W.E.2.J M .XB @ P f . ",
" .#...X.6.C J E.j.'.'.k.z.s.S.7XU.4XqXD.1X+ O = X X     X X         X X   : . MXFXJ.P.sXuX7X XZ.h _.K K :.S A t # ; . o ",
"#.+.^ 5.-.Z 2.E.L -X*X^.#XeXY.T.3XpXrXE vX@ O % X X     X X     X X X X   f . LXVXk 3XKXyX8X4Xa.g W.E.2.S p 3 - - :     ",
"X.o._ X.%.*.K c.(.k.j.`.+XK.T.0XuX7X XE NX+ > % X X     X X O   O   X     > . MXqXm 3XpXBXyXaXH.l @XxX2.J M u 3 d f : O ",
"X._ X.=.%.4.R.G d.h.#X).@XBX0X9XT.iXVX2 MXe.  : X X     X X       X     > O W GXR L.pXpXBXtXL.D.z xXmXK F S 5 f : 7 X O ",
"o.o.6.] Z 2.E.K ~.(.*Xk.=X0X0X9X0XT.eXZ.|.cX  d O X X     .   . . O     d O vX1XZ.uXpX7XDXVXF.h i.;X-XW.j U B B . : O + ",
"o.X.+.] %.J !.n.v.~.`.B.H.m S.,X9XA.K.Z., vXf O = O X X   . .     > O O O 7 vXR m yX7XZ.wX4Xa.a.V.#X;X@Xd.c.E.V 1 ].W + ",
"_ #.! ( A 4 E.n.^.).).k.i.3XyX9X9XA.L.P., <XcXX > > & X           O > 7 O <XNXR :X>XY.Y.K.$XD.a.B.C.M.N.c.F F V 2 lXoX+ ",
" ...! * 3 ].F ].}.b v.*XF.VXiXsXdX,X>X>XL.m MXcX.   f : >     O d d O   1XJX2X8XJ.Y.A.&Xp.l.F.I d.f.W.E.V M 1.5 1 , @ + ",
" .~ 8 s .XCX!.b c d.l.[.eX%XeXA.9X9X,X,XAXL.R GXvXP . O > > > O O > f vXJXrXJ.P.7XyXU.BX{.[.*X~.d.d.c.V , - 7 w.$ + + @ ",
"0.' 8 <.t.].k j L l.v i.{.m.H.T.Y.a.3XL.aXaXJ.6 GXLXrXy.@ . . o y.MXKXMXR :XR S.uXsXY.%XA.G.=Xu.v Y 2.4 # P y.CX|.6 @ 6 ",
"0.$.e <.1.t 4 D Q.l.z.m.+X&Xx &Xs.Z.$XBX5X8X6XJ.R 2XHXKXJXPXIXJXJXMXJ.Z.Z.:X9X0X9XtX3X7Xs.u.V.z.N 2.,.i u >.t.CX|.n n R ",
"q.0.8 q s C :.E.f.i.z.+X&X&Xz p.a. XtXSXJXDXSXaX:XR Z.2XaXAXDXDX6XZ.K.8X8X9XHX0Xm R L.H.u.u.j.H -.=./ 6.7.q 9 1.f , 2 2 ",
"{ q.8 e s p :.R.W.z.k.I.+X-XF.{. Xa. XeXJX6XFXsX2X8XaX:XP.P.6X6X7X7XyXyX0XdXsX8XP.L.eXD.h g.R.H 9.} / 6.hXi 9 r 4 B T @ ",
"d d 8 | 8.*.Z H L h.^.`.s.+Xs.{.l.D.b  XiXiXtXZ.6XHXdX:X:X5XFXBXH.H.eXtXsXFX2XAXtXm h g V !.!.-.<.( a a y ; 3 + 1 |.NXE ",
"= { e 0 s 3 M V j c.}.=X#XV.i.z a.v g $XeX4XtXx R ,XA.6X6XA.K.A.m L.Z.iXHXaXVXqXD.m ].].U A 9.8.a % 0 0 o # < @ n |.MXD.",
"q / 9 % ; + + 1 1 J K /.@X#XC.i.i.z @Xp.l F.l eX4XH.eX7XeXp.7XwXZ.Y.U.L.5XD.J.eX2 F !.!.-.[ ` X.8 a 0 o ; # . @ + @ |.+ ",
"5.] 8 9 : O : f 3 3 4.K g.(.;X#Xm.+Xx.F.u.l M.z.=Xb.{.a.l P.DXtXx iXiXU.p.a.l h }.Q.H t 9.=./ X.9 & f u @ y.cX< 3 3 f : ",
"5.5.9 r :   : f y - *.Z 2.g.k.-X=XG.+XM.d.(./.c h g.b z $XK.%XA.U.&XH.a.%Xm.i.N.M.j.).XXM C p 3 : o f 5 @ e.y.. ; ; ; | ",
"hX7.a * : +   X - u t t Z K D ~.@Xl.{.@XW.j.g.R.W.j.W.b.=X+Xs.H.m.i.s.=X=X{.[.M.z z =XXXK 1 4 3 o . @ 6 1 @ @ $ = e 8 $.",
"+.r.+.% ; $ , e.,.< # t t t A *.!.W.E.R.v.d.v.l #X*X[.@Xh.~.[.z.i.V.#XeXH.@X{.u.M.j.XX_.K M M 4 # . > 6 $ . $ 0 = e ! { ",
"^ +.} 8 - + 1 cXe.@ r r &.( q ) H D !.R.v.f.d.N.f.^.@XB.M.M.z u.i.I.V.u.l.l.I c./.*XW.(.D K M u 3 : 5 5 , + : 0 w { gXO.",
"+.{ w e a ; + u 1 $ y y s r.@./ M ;.H K g.Q.~.g.B.M.^.M.^.f.f.h.h.M.}.c.T V Y N K XXE.D Y F V P - 8 o o 5 O % { q.jXjXjX",
"{ ! w w * O $ . < @ . t.9 ] $.` [ C *.4.Z N c g.v.}.~.h._.-X).W._.R.N J A S P B Z M N Y 3.!..X# 0 = & ; 0 % = +.jXgX .jX",
"{ w = = = O O > # u |.CX.X| 8 ' X.7./ <.s - B V N H H H !.R.Z 4 9.8.9.7.p s 1.f p p ,.A 3 T B - >   O > 0 8 ! $.O.gXgXgX",
"{ w = X = e : 5 t A ].CXe.,.r ] o.#.7.{ 8 ; r u t N 2.%.%.9.=.=.i s ( Q ) <.- & ( i i .X,.$ # 3     O > = w { $. . . . .",
"] i 8 * e q 9 r [ t 4 3.3 s p a _ +.r.! % y - t u C t 4.-.9 &.r f & q q & o ; o r s f bXcX1 5 # f u @ 3 ; r ) ] ` o.o._ ",
"i i 9 i ` =.&.%.9.C M M p *.>.i q ' | a 0 0 5 y t A 8.>.[ &.s a 0 f a & & . f ; & 9 r >.f $ - - 1.1.< $ < t &.i ` ` _ ` ",
"%.C p %.-.9.;.*.:.-.H C *.*.p 9 q w 0 = % = 0 y - s 8.i a 1.$.bXt.| 9 * 0 - : & q q 9 * & - q s 9 9 r >.,.t r 9 ) ) ` ) ",
"Z Z Z Z ;.Z D D N :.;.;.*.9.s s 0 = = %   = & ; * 9 9 / 6.| q.bXy.= 9 w * * & * 8 q / a } } } @.q 8 * >.w.; - - r w w w ",
"H D D D F G n.F.l G K ;.-.<.) s ; o X f f * 0 a 8 8 ' e $.y.w q.X = a ; 0 ) 9 9 / ] ] ( 7.7.hX#.7.$.w % & : y . = ; * = ",
"v.v.l.l.u.x.U.&XP.l.U t %.[ <.i & 5 % cXzX; | } Q Q ~ $.kX$.e 8 : - o >.3 - y p >.9.r./ ) ` _ X.kX$.' | ; ; . $ $ o O o ",
"+XG.x.m.i.wXwX7XL.n.N C =.` q 9 - - 3 >.1.) a ] @.#...hXhXe ! e y 5 w.<Xu 1 u 4 t A s >.i 5.6.5.hXhX} ) 3 4 < 1 $ 1 + 5 ",
"A.7XA.&XT.I.wXI.a.c t =.=.` q 8 9 3 y s <.) / X.@.#.#.fXfX^ ~ w 3 P zXJXoX,.P ,.,.B ,.9.9.-.8.8.hX7.6.9.&.4.U T T 6 T P ",
"T.T.iX&XT.&Xa.N.c N %.5.X./ q 8 9 s i s ) [ ` X.o.o.#...fX...._ r # P e.2 P .X.Xe.V 4.8.kX:..XkXhXhX8.8.4.].!.].T k ].T ",
"T.T.,XY.&XI.s.d.K -.%.5._ Q 8 q i s p i [ ) ` ` o.o.fX .#.#._ ^ 9 u < P u S B 4 M M M S %.%.-.-.5.5.=.-.C V h c k 2 g V "
};
