/* XPM */
static char *a949ecc31192406a9b12790df2d7775acO5tAvHrAWArSVev[] = {
/* columns rows colors chars-per-pixel */
"60 60 124 2 ",
"   c None",
".  c #6A0000",
"X  c #770000",
"o  c #7B0000",
"O  c #830000",
"+  c #8B0000",
"@  c #930000",
"#  c #990000",
"$  c #A20000",
"%  c #AC0000",
"&  c #D40000",
"*  c #DB0303",
"=  c #E40000",
"-  c #EE0000",
";  c #F30000",
":  c #FF0000",
">  c #FF0B0B",
",  c #FF1313",
"<  c #FF1B1B",
"1  c #FF2323",
"2  c #FF2C2C",
"3  c #FE3535",
"4  c #FE3C3C",
"5  c #FE4343",
"6  c #FE4C4C",
"7  c #FE5353",
"8  c #FE5B5B",
"9  c #FF6565",
"0  c #FE6969",
"q  c #FE7474",
"w  c #FE7B7B",
"e  c #FF8484",
"r  c #FE8C8C",
"t  c #FE9494",
"y  c #FD9E9E",
"u  c #FE9E9E",
"i  c #FDA0A0",
"p  c #FDA1A1",
"a  c #FEA0A0",
"s  c #FDA2A2",
"d  c #FDA3A3",
"f  c #FDA4A4",
"g  c #FDA5A5",
"h  c #FEA4A4",
"j  c #FEA5A5",
"k  c #FDA8A8",
"l  c #FDA9A9",
"z  c #FEA8A8",
"x  c #FEA9A9",
"c  c #FDAAAA",
"v  c #FDADAD",
"b  c #FEADAD",
"n  c #FDAEAE",
"m  c #FEAEAE",
"M  c #FEAFAF",
"N  c #FCB0B0",
"B  c #FDB1B1",
"V  c #FDB2B2",
"C  c #FCB3B3",
"Z  c #FEB3B3",
"A  c #FDB4B4",
"S  c #FDB5B5",
"D  c #FDB6B6",
"F  c #FDBFBF",
"G  c #FEC1C1",
"H  c #FFC4C4",
"J  c #FCC6C6",
"K  c #FDC7C7",
"L  c #FEC6C6",
"P  c #FDC0C0",
"I  c #FCCBCB",
"U  c #FECFCF",
"Y  c #FDD3D3",
"T  c #FED5D5",
"R  c #FDD6D6",
"E  c #FED0D0",
"W  c #FDDADA",
"Q  c #FEDBDB",
"!  c #FDDCDC",
"~  c #FCDDDD",
"^  c #FDDDDD",
"/  c #FEDDDD",
"(  c #FDDEDE",
")  c #FEDEDE",
"_  c #FEDFDF",
"`  c #FDDBDB",
"'  c #FDE0E0",
"]  c #FCE1E1",
"[  c #FEE1E1",
"{  c #FEE2E2",
"}  c #FDE4E4",
"|  c #FCE5E5",
" . c #FDE6E6",
".. c #FDE9E9",
"X. c #FEE9E9",
"o. c #FDEAEA",
"O. c #FDEBEB",
"+. c #FEEAEA",
"@. c #FEEBEB",
"#. c #FDEDED",
"$. c #FFEDED",
"%. c #FDEFEF",
"&. c #FDF1F1",
"*. c #FEF0F0",
"=. c #FFF0F0",
"-. c #FDF2F2",
";. c #FEF2F2",
":. c #FEF6F6",
">. c #FEF7F7",
",. c #FDF1F1",
"<. c #FDFBFB",
"1. c #FEFAFA",
"2. c #FEFBFB",
"3. c #FFFBFB",
"4. c #FDFDFD",
"5. c #FEFCFC",
"6. c #FFFCFC",
"7. c #FFFDFD",
"8. c #FDFEFE",
"9. c #FDFFFF",
"0. c #FFFEFE",
"q. c #FEFFFF",
"w. c white",
"e. c #FFFFFF",
/* pixels */
"                                                                                                      O O O O O O O O + ",
"                                                                                                    O + + + O + O + + O ",
"                                                                                                    O + O O O O O O O O ",
"                                                                                                    o O O O o O O O O O ",
"                                                                                                    O O O O O o O O O O ",
"                                                                                                    O O O o O O O O O O ",
"                                                                                  O + O O + O O O O O O o O o O o O O O ",
"                                                                                  O O O O O O O O O o O O O o O O O O O ",
"                                                                                  O O O o O o O O O O O O O O O o O O O ",
"                                                                                  O O O O O O O O o o O O O O O O + O O ",
"                                                                                O O O O O O O O o O O O O O O O O O O O ",
"                                                                + # O + + + + + +           O O O + O                   ",
"                                                                O O O O O O O O O           O O O + O                   ",
"                                                                + # O + + + O @ +           O O o + O                   ",
"                                                              O + O O O O O O O +           O O O + O                   ",
"                                                        + + + O O                           O O O + O                   ",
"                                                      + # + # O                             O O O + O                   ",
"                                                      O O O O O                             O O o + O                   ",
"                                                      + # O @ O                             O @ O # +                   ",
"                                                      O O O O O                           O O O O O                     ",
"                    :       : : : : : : : : - # o + O O                           O + O + +                             ",
"                  : : : : : : : : : : : : : ; $ O @ @ +                           O @ O # @                             ",
"                  : : : : : : : : : : : : : ; # X O O O                           O O O O +                             ",
"                  : : : : : : : : : : : : : - + . o o o                           O + o + +                             ",
"                  : : : : : : : : : : : : : - $ + # # %                           O O + O O                             ",
"          : : : : : : : : : : : : : : : : : : - - ; - ; : : : :           @ + + @                                       ",
"          : : : : : : : : : : : : : : : : : : : : : : > , , , ,           + + + +                                       ",
"          : : : : : : : : : : : : : : : : : : : : : : : : : : :           O O O O                                       ",
"          : : : : : : : : : : : : : : : : : : : : : : , 1 1 1 1           O O + +                                       ",
"          : : : : : : : : : : : : : : : : : : : : > : 5 q e e e w         + O O O                                       ",
": : : : : : : : : : : : : : : : : : : : : : : : : < : r | <.:.0.G 5 : 1 * + o X @ = : : : : : : : : :                   ",
": : : : : : : : : : : : : : : : : : : : : : : : : < : r #.0.0.0.J 5 : 1 = + X X + = : : : : : : : : : :                 ",
": : : : : : : : : : : : : : : : : : : : : : : : : < : r ..0.0.0.G 5 : 1 * + X X @ = : : : : : : : : : :                 ",
": : : : > , < < < , > : : : : : : : : : : : : : : < : t ;.0.0.0.J 5 : 1 * + X X @ = : : : : : : : : : : : : :           ",
": : : : > < < < 1 < > > : : : : : : : : : : : : : < : r / #...:.N 5 : 1 * + o X + = : : : : : : : : : : : : :           ",
": : : > , 1 2 2 2 1 > > : : : : : : : : : : : :         q w q q 7 < : > & + X X @ = : : : : : : : : : : : : :           ",
": : > : 4 r k d g t 6 : < > : : : : : : : : :           < < < < , > > ; & + X o @ = : : : : : : : : : : : : :           ",
": : < : 9 R ;.;.<.R 0 : 1 > : : : : : : : : :           1 1 < < , : : : & o . . O = ; : : : : : : : : : : : :           ",
": > , : 0 ' 0.0.0.' q : 3 < > : : : : : : : :           < < , < , : ; : & + O o # = : : ; : : : : : : : : : :           ",
": : , : 0 / 0.0.0./ 9 : , : : : : : : : : : :           : : : : : : : : ; & & & & ; : : : : : : : : : : : : :           ",
": > < : 0 / 0.0.0.~ q 3 5 4 1 : : : : : : : :           : : : : : : : : : : : : : : : : : : : : : : : : : : :           ",
": : , : 8 J ..| ..~ S t d y 9 : : > : : : : :           : : : : : : : : : : : : : : : : : : : : : : : : : : : :         ",
": : : : < 4 6 4 3 S 9.<.<.<.g : : , : : : : :           : : : : : : : : : : : : : : : : : : : : : : : : : : : :         ",
": : : : : : : : : k 0.0.0.<.d : : , : : : : :           : : : : , < 1 < 1 , : : : : : : : : : : : : : : : : : :         ",
": : : : > > , : : n 0.0.0.9.d : : , : : : : :           : : : > : : : : : : : > : : : : : : : : : : : : : : : :         ",
": : : : : > < : : N 0.0.0.0.f : : , > : : : :           : : : : 1 4 5 4 5 2 , : : : : : : : : : : : : : : : : :         ",
": : : : : : > : : t | ' ] ~ r : : , : : : : :           : > > : 0 y c k n q 2 : , : : : : : : : : : : : : : : :         ",
"          : : : : 1 3 3 3 3 1 : : : : : : : :           : > < : g ,.0.0.0.B 6 : < : : : : : : : : : : : : : : :         ",
"          : : : : > > > > > : : : : : : : : :           : > 1 : y ..0.0.0.B 6 : 2 < : : : : : : : : : : : : : :         ",
"          : : : : > , < < , > : : : : : : : :           : > < : y #.0.<.0.k 4 : : : : : : : : : : : : : : : : :         ",
"          : : : : > , , , , > : : : : : : : :           : > < : g #.0.0.0.N 2 : > : : > : : : : : : : : : : : :         ",
"            : : : : : : : : : : : : : : : : :           : > , : r J Q R ~ I A n B d 3 : > > : : : : : : : : : :         ",
"                                                        : : : : 2 6 7 5 6 ] 9.0.0...7 : > , : : : : : : : : : :         ",
"                                                        : : : > : : : : : ~ 0.0.0...6 : , , : : : : : : : : : :         ",
"                                                          : : : > < < : 1 ~ 0.0.0.| 6 : > , : : : : : :                 ",
"                                                                : > , > < | 9.0.0.;.7 : , , : : : : : :                 ",
"                                                                : > : : , N E E U P 5 : > > : : : : : :                 ",
"                                                                : : : > > 8 0 0 0 8 < : > : : : : : : :                 ",
"                                                                : : : : : : : : : : : > : : : : : : : :                 ",
"                                                                : : : : : 2 2 2 2 1 > : : : : : : : :                   "
};
