/* XPM */
static char *d73f3ec854d3405d830cb1de7f5b439dJ4ChJ2avutMqi7TT[] = {
/* columns rows colors chars-per-pixel */
"60 59 34 1 ",
"  c black",
". c #000005",
"X c #000008",
"o c #00000C",
"O c #000012",
"+ c #000015",
"@ c #000018",
"# c #00001D",
"$ c #000022",
"% c #000027",
"& c #00002B",
"* c #00002D",
"= c #000031",
"- c #000034",
"; c #000038",
": c #00003D",
"> c #000043",
", c #000045",
"< c #00004B",
"1 c #00004D",
"2 c #000052",
"3 c #000057",
"4 c #000059",
"5 c #00005C",
"6 c #000061",
"7 c #000067",
"8 c #00006A",
"9 c #00006F",
"0 c #000073",
"q c #000077",
"w c #00007B",
"e c #00007D",
"r c #000081",
"t c #000084",
/* pixels */
"        ...                                      ..         ",
"       XX   @;,11121111121111121111121111112<>*    .X       ",
"      X  o,600qqqqqqqqqqqqqqqqqqqqqqqwqqqqqqqq073=  XX      ",
"    .X  ;5qwq8777767767776777767767776677677789qq92% o.     ",
"   .XXO,9eq4;                                 %<7ee5% o.    ",
"   XoO,ee4   o@*><<<<<<<<<<<<<<<<<<<<<<<<<<;&o.  -0r8o X.   ",
"  X.o:eq<   *59qqqqwqqqwqqqqqqqqqqqqqqwqqwqq07<   +6t8X     ",
" XX =0w<X o2qq841<,,,<,,<,,<,,<,,<,,<,,<,,<250q8=  &5t4# o  ",
" X $4r2+ %5w82:%O                         .@=,4q0:  -0w: X. ",
".  ,0q+ #4w7;    . .  . . .  ..   .  .  . .   .2q9> o>r5$ O ",
"X  5e2o 2q8   o+OOOoOOOOOOOOOOOoOOOOOOoOOoOOOo  ,e7& o00, O ",
". =8w* =09% +o.                              X+o 5q4 O3e3  X",
". >90  602 .X                                 X+  80* :e5  +",
"  108 @98= o.                                  X+ 403 &w7% +",
"  207 :q4X O                                    @ ,98 #q7* +",
"  2q7 201  o                                   .O *60 +q8= @",
"  207 30< .o                                    O #60 Oq8= @",
"  207 49<  X.                                   o #60 O08= @",
"  2q6 40< .X                                    O #60 Oq8* @",
"  207 30<  o                                    O @60 O08= @",
"  307 49<  X                                   .o #50 Oq8= +",
"  207 40,  o                                    O #60 Oq8= @",
"  2q6 49< .X                                    O #60 Oq8= @",
"  207 40< .X.                                   O #50 Oq8= @",
"  207 40<  o                                    o #60 Oq7= @",
"  2q7 49<  X                                   .O #60 Oq8= @",
"  207 40<  o                                    O #50 O08= @",
"  307 49< .X                                    o #60 Oq8= @",
"  206 40<  o                                    O #50 Oq7= @",
"  2q7 30<  X                                    o #60 Oq8= @",
"  207 40< .X                                    O #60 O08= @",
"  207 49<  o                                    O #50 Oq8= @",
"  2q7 49< .X                                   .O @60 Oq7= @",
"  207 40<  o                                    O #60 O08* @",
"  2q6 30<  X.                                   o #60 Oq8= @",
"  207 49,  o                                    O #60 Oq8= @",
"  307 40< .X                                    o #50 O08= @",
"  207 49<  o                                   .O #60 Oq8= @",
"  206 40< .X                                    O #60 O07= @",
"  307 40<  X.                                   O #50 Oq8= @",
"  207 49<  o                                    O #5q Oq8= @",
"  207 49< .X                                    O #60 O08= @",
"  2q6 30<  o                                   .O %60 +q8= @",
"  207 >03  o                                    @ :88 @q8= @",
"  208 $06* o.                                  .+ 394 &q7% +",
"  ,09  702 XX                                 .O  80; ;w5. O",
"X =8w% >08O +X                           .    X# 2q7 O2e3 .X",
"X X5e<o 5w6  oOOXXXXXXXXXXXXXXXXXXXXXXXX.XXoOOX $w8; +9q< O ",
"X  1w9. $5e6         .     .         .     .   ;qq<  -r7* O ",
" X *6r<o =6w71%                              -4q0<@ %8e, .. ",
" X. :qq>  %5q0621,,,,,<,,,,,<,,,<,,,,,<,,,<14809,X #4r5$ X  ",
"  X +1r8>X  ,7000999999999999999999999999990q94&  @4eq# X.  ",
"  .X .4r0,oo  =25667666676676666766766667664,$  O@5rq& oX   ",
"   XX .2wr8:    ..  .... .. .... .  .... .     %2wt8* o.    ",
"    .o +>7weq8555434444444444444453444444444579weq3&.o.     ",
"     ..  *269qqqqqqqqqqwqqqqqqqqqqqqqqqwqqqqqq084>@ .X      ",
"      ..   $>235555555555555555545555555555553<-   XX       ",
"        XX                                        X.        ",
"          .X.                                  .X.          "
};
