/* XPM */
static char *_cb1212478754c27d0ceda5cee6813663hMYz3QXKL1Bji1i[] = {
/* columns rows colors chars-per-pixel */
"60 62 38 1 ",
"  c None",
". c black",
"X c #131300",
"o c #161600",
"O c #1B1B00",
"+ c #202000",
"@ c #2C2C00",
"# c #2D2D00",
"$ c #303000",
"% c #363600",
"& c #393900",
"* c #3E3E00",
"= c #434300",
"- c #9E9E00",
"; c #A0A000",
": c #A1A100",
"> c #A5A500",
", c #A6A600",
"< c #A7A700",
"1 c #BEBE00",
"2 c #BFBF00",
"3 c #C0C000",
"4 c #CECE00",
"5 c #CFCF00",
"6 c #D0D000",
"7 c #D1D100",
"8 c #D9D900",
"9 c #E3E300",
"0 c #EAEA00",
"q c #F4F400",
"w c #F5F500",
"e c #F8F800",
"r c #F9F900",
"t c #FBFB00",
"y c #FCFC00",
"u c #FDFD00",
"i c #FEFE00",
"p c yellow",
/* pixels */
"                                                            ",
"                                                            ",
"               ppppppppppppppppppppppppppppppppppp          ",
"               ppppppppppppppppppppppppppppppppppp          ",
"               ppppppppppppppppppppppppppppppppppp          ",
"               ppppppppppppppppppppppppppppppppppp          ",
"          ppppppppppppppppppppppppppppppppppppppppppppp     ",
"          pppppppppppppppppptpppppppppppppppppppppppppp     ",
"          ppppppppppppppppppppppppppppppppppppppppppppp     ",
"          ppppppppppppppptpwtwttppppppppppppppppppppppp     ",
"          pppppppppppppppt056569ppppppppppppppppppppppp     ",
"         pppppppppppppptpq1%OX*;pptppppppppppppppppppppppppp",
"      pppppppppppppppppppw3X#.&<pppppppppppppppppppppppppppp",
"      ppppppppppppppppptpw3X..#;pptppppppppppppppppppppppppp",
"      ppppppppppppppppptpw3$$O=<pppppppppppppppppppppppppppp",
"      pppppppppppppppppppt8;<-<5pppppppppppppppppppppppppppp",
" ppppppppppppppppppppppppppppppppppppppppppppppppp          ",
" ppppppppppppppppppppppppppppppppppppppppppppppppp          ",
" ppppppppppppppppppppppppppppppppppppppppppppppppp          ",
" ppppppppppppppppppppppppppppppppppppppppppppppppp          ",
" ppppppppppppppppppppppppppppppppppppppppppppppppp          ",
" pppppppppppppppppppppppppppppppppppppppp                   ",
" pppppppppppppppppppppppppppppppppppppppp                   ",
" pppppppppppppppppppppppppppppppppppppppp                   ",
" ppppppppppppppppppppppppppppppppppppppp                    ",
" ppppppppppppppppppppppppppppppp                            ",
" ppppppppppppppppppppppppppppppp                            ",
" ppppppppppppppppppppppppppppppp                            ",
" ppppppppppppppppppppppppppppppp                            ",
" pppppppppppppppppppppppppp                                 ",
" pppppppppppppppppppppppppp                                 ",
" pppppppppppppppppppppppppp                                 ",
" pppppppppppppppppppppppppp                                 ",
" pppppppppppppppppppppppppp                                 ",
" ppppppppppppppppppppppppppppppp                            ",
" ppppppppppppppppppppppppppppppp                            ",
" ppppppppppppppppppppppppppppppp                            ",
" ppppppppppppppppppppppppppppppp                            ",
" pppppppppppppppppppppppppppppppppppppppp                   ",
" pppppppppppppppppppppppppppppppppppppppp                   ",
" pppppppppppppppppppppppppppppppppppppppp                   ",
" pppppppppppppppppppppppppppppppppppppppp                   ",
" ppppppppppppppppppppppppppppppppppppppppp                  ",
" ppppppppppppppppppppppppppppppppppppppppppppppppp          ",
" ppppppppppppppppppppppppppppppppppppppppppppppppp          ",
" ppppppppppppppppppppppppppppppppppppppppppppppppp          ",
" ppppppppppppppppppppppppppppppppppppppppppppppppp          ",
" pppppppppppppppppppppppppppppppppppppppppppppppppp         ",
"     ppppppppppppppppppppppppppppppppppppppppppppppppppppppp",
"      pppppppppppppppppppppppppppppppppppppppppppppppppppppp",
"      pppppppppppppppppppppppppppppppppppppppppppppppppppppp",
"      pppppppppppppppppppppppppppppppppppppppppppppppppppppp",
"      ppppppppppppppppppppppppppppppppppppppppppppppppp     ",
"          ppppppppppppppppppppppppppppppppppppppppppppp     ",
"          ppppppppppppppppppppppppppppppppppppppppppppp     ",
"          ppppppppppppppppppppppppppppppppppppppppppppp     ",
"          ppppppppppppppppppppppppppppppppppppppppppppp     ",
"              pppppppppppppppppppppppppppppppppppp          ",
"               ppppppppppppppppppppppppppppppppppp          ",
"               ppppppppppppppppppppppppppppppppppp          ",
"               ppppppppppppppppppppppppppppppppppp          ",
"               ppppppppppppppppppppppppppppppppppp          "
};
