/* XPM */
static char *a044cb76e56b40f3a12458d2d50ff601O76lQIltT11AoJd7[] = {
/* columns rows colors chars-per-pixel */
"60 62 48 1 ",
"  c None",
". c black",
"X c #0B0B00",
"o c #0E0E00",
"O c #141400",
"+ c #1A1A00",
"@ c #282800",
"# c #292900",
"$ c #2C2C00",
"% c #2C2C01",
"& c #333300",
"* c #363600",
"= c #3C3C00",
"- c #414100",
"; c #9F9F00",
": c #A1A100",
"> c #A2A200",
", c #A6A600",
"< c #A7A700",
"1 c #A8A800",
"2 c #BFBF00",
"3 c #C0C000",
"4 c #C1C100",
"5 c #CFCF00",
"6 c #D0D000",
"7 c #D1D100",
"8 c #D2D200",
"9 c #DADA00",
"0 c #E4E400",
"q c #EBEB00",
"w c #F4F400",
"e c #F5F500",
"r c #F8F800",
"t c #F9F900",
"y c #FBFA00",
"u c #FBFB00",
"i c #FCFC00",
"p c #FDFC00",
"a c #FCFD00",
"s c #FDFD00",
"d c #FFFD00",
"f c #FEFE00",
"g c #FFFE00",
"h c #FEFF00",
"j c yellow",
"k c #FEFF01",
"l c #FFFF01",
"z c #FFFF02",
/* pixels */
"         jjjjjjjjjjjjjjjjjjjjjjjjjjjjjjjjjjjjj              ",
"         jjjjjjjjjjjjjjjjjjjjjjjjjjzjjjjjjjjjj              ",
"         jjjjjjzjjjjjjjjjjjzjjjjjjjjjjjjjjjjjj              ",
"         jjjjjjjjjjjjjjjjjjjjjzjjjjjjjjjjjjjjj              ",
"     jjjjjjjjjjjjjjjjzjjjjjjjjjjjjjjjjjjjjijjjjjjj          ",
"     jjjjjjjjjjjjjjjjjjjjpjjjjjjjjjjjjjjjjjjjjjjjjj         ",
"    jjjjjjjjjjjjjjjjjjjjjjjjjjjjjjjjjjjzjzjjjjjjjjj         ",
"    jjjjjjjjjjjjjjjjjjjjjjzjjjppijjjjjjjjjjjjjjjjjj         ",
"    jjjjjjjjjjjjjjzjjjjjjjjjjjjjjjjzjjjjjjjjjjjjjjjjjj      ",
"jjjjjjjjjjjjjpjjjjjjjjjjjjzjttetrijjjjjjjjjjjjjjjjjjjjj     ",
"jjjjjjjjjjjjjjjjjjjjjjjjjjjj07777qtjijjjjjjjjjjjjjjjjjj     ",
"jjjjjjjjzjjjjjjzpjjjjjjjjpzj>=XO&3wjijjjjjjjjjjjjjjjjjj     ",
"jjjjjjjjjjjjjjjjjjjjjjjjjjjj1*.%o4ejijjjjijjjjjjjjjjjjj     ",
"jjjjjjjjjjjjjjjjjjjjjjjjjjjj>%..X2wjijjjjjjjjjjjjjjjjjijjjj ",
"jjjjjjjjjjjjjjjjjjjjjjjjijjj,-+%%3wjijjjjjjjjjjjzjjjjjjjjjjj",
"jjjjjjjjjjjjjjjjjjjjjjjjijjj5,>,;9rjjjjzjjjjjjjjjjjjjjjjjjjj",
"         jjjjjjjjjjjjjjjjjjjjjjjjjjjjjjjjjjjjjjjjjjjjjjjjjjj",
"         jjjjjjjjjjjjjjjjjjjjjjjjjjjjjjjjjjjjjjjjjjjjjzjjjjj",
"         jjjjjjjjjjjjjjjjjzjjjjjjjjjjjjjjjjjjjjjjjjjjjjjjjjj",
"         jjjjjjjjjjjzjjjjjjjjjjjjjjjjjjjjjzjjjjjjjjjjjjjjjjj",
"          jjjjjjjjjjjjjjjjjjjjjjzjjjjjjjjjjpjjjjjjjjjjjjjzjj",
"                  jjjjjjjjjjjjjjjjjjjjjjjjjjjjjjjjjjjjijjjjj",
"                  jjjjjjjjjjjjjjjjjjjjjjjjjjjjjjjjjjjjjjjjjj",
"                  jjjjjjjjjzjjjjjjjjjjjjjjjjjjjjjjjjjjjjjjjj",
"                  jjjjjzjjjjjjjjjzjjjjjzjjjjjzjjjjjjjjjjjjjz",
"                            jjjjjjjjjjjjjjjjjjjjjjjjjjjjjjjj",
"                            jjjjjjjjjjjjjjjjjjjjjpjjjjjjjjjj",
"                            jjjjjjjjjpjjjjjjjjjjjjjjjjjjjjjj",
"                            jjjjjjjjjjjjpzjjjjjjjjjjjjjjjjjj",
"                            jjjjjjjjjjjjjjjjjjjjjjjjjjjjjjjj",
"                                jjjjjjjjjjjjjjjjjjjjjjzjjjjj",
"                                zjjjjjjjjjjjjjjjjjjjjjjjjjjj",
"                            jjjjjjjjjjjjjjjjjjjjjjjzjjjjjjjj",
"                            jjjjjjjjjjjjjjjjzjjjjjjjjjjjjjjj",
"                            jjjjjjjjjjjjjjjjjzjjjjjjjjjjjjjj",
"                            jjzjjjjjjjjjjjjjjjjjjjjjjjjpjjjj",
"                            jjjjzjjjjjjijjjjjjjjjjjjjjjjjjjj",
"                  jjjjjjjjjjjjjjjjjjjjjjjjjjjjjjjjjjjjjjjjjj",
"                  jjjjjjjjjjjjjjjjjjjjjjjjjjjjjjjjjjjjjjjjjj",
"                  jjjjjjjjjjjjjjjjjjjjjjjjjjjjjjjjjjjjjjjzjj",
"                  jjjjjjjjjjjjjjjjjjjjjjjjjjjjjjjjjjjjjjjjjj",
"          jjjjjjjjjjjjjjjjjjjjjjjjjjjjzjjjjjjijjjjjjjjjjjjjj",
"         jjjjjjjjjjjjjjzjjjjjjjjzjjjjjjjjjjjjjjjjjjzjjjjjjjj",
"         jjjjjjjjjjjjjjjjjjjjjjjjjjjjjjjjjjjjjjjjjjjjjjpjjjj",
"         jjjjjjjjjjjjjjjjjjjjjjjjjjjjjjjjjjjjjjjjjjjjjjjjjjj",
"         jjjjjjjjjjjjjjjjjjjjjjjjjjjjjjjjjjjjjjjjjjjjjjjjjjj",
"jjjjjjjjjjjjjjjjjjjjjjjjjjzjjjjjjjjjjjjjjjjjjjjjjjjjjjjjjjjj",
"zjjjjjjjjjjjjjjzjjjjjjjjjjjijjjjjjjjjjjzjjjjjjjjjjjjjjjjjjjj",
"jjjjjjjjjjjjjjjjjjjjjjjjjjjzjjjjjijjjjjjjjjjjjjjjjjjjjjjjjj ",
"jjjjjjjjjjjjjjjzjjjjijjjjjjjjjjjjjjjjjjjjjjjjjjjjjjjjij     ",
"jjjzjjjjjjjjjjjjjjjjjzjjjjjjjjjjjjjjjjjjjjjjjjjjjjjjjjj     ",
"jjjjjjjjjjjjjjjjjjjjjjjjjjjjjjjjjjjjjjjjjjjjjjjjjjjjjjj     ",
"jjjjjjjjjjjjjjjjjjjjjjjjjjjjjjjjjjjjjjjjjjjjjzjjjjjjjjj     ",
"    jjjjjjjjjjjjjjjjjjjjjjzjjjjjjijjjjjjjjjjjjjjjjjjjj      ",
"    jjjjjjjjjjjjjjjjjjjjjjjjjjjjjjjzjjjjjjjjjjjjzjj         ",
"    jjjjjjjjjjjjjjjjjjjjjjjjjjjjjjjjjjjjjjjjjjjjjjj         ",
"     jzjjjjjjjjjjzjjjjjjjjjjjjjjjjjjjjjjjjjjjjjjjjj         ",
"     jjjjjjjjjjjjjjjjjjjjjjjjjjjjjjzjjjjjjjjjjjjjj          ",
"         jjjzjjjjjijjjjzjjjjjjjjjjjjjjjijjjjjj              ",
"         jjjjjjjjjjjjjjjjjjjjjjjjjjjjjjjjjjjjj              ",
"         jjjjjjjjjjjjjjjijjjjjjjjjjjjjjjjjjjjj              ",
"         jjjjjjjjjjjjjjjjjjzjjjjjjjjjjjjjjijjj              "
};
