/* XPM */
static char *_f784823ee7844caac5bada616c6bb91sR3qs8skv141zvCF[] = {
/* columns rows colors chars-per-pixel */
"60 58 51 1 ",
"  c None",
". c black",
"X c #1D1C00",
"o c #2B2B00",
"O c #2E2E00",
"+ c #404000",
"@ c #5C5B00",
"# c #636300",
"$ c #676700",
"% c #6B6B00",
"& c #A5A400",
"* c #A7A700",
"= c #A8A800",
"- c #A9A900",
"; c #ACAC00",
": c #AFAF00",
"> c #B0B000",
", c #BABA00",
"< c #C6C600",
"1 c #C8C801",
"2 c #CCCC00",
"3 c #D1D100",
"4 c #D1D101",
"5 c #DEDD00",
"6 c #DEDE00",
"7 c #DFDF00",
"8 c #E1E100",
"9 c #EEEE00",
"0 c #F2F200",
"q c #F3F300",
"w c #F4F400",
"e c #F7F700",
"r c #F7F701",
"t c #F8F800",
"y c #F9F900",
"u c #FAFA00",
"i c #FAFB00",
"p c #FDFC00",
"a c #FDFD00",
"s c #FDFD01",
"d c #FEFD00",
"f c #FFFD00",
"g c #FDFE00",
"h c #FDFF00",
"j c #FEFE00",
"k c #FFFE00",
"l c #FEFF00",
"z c yellow",
"x c #FFFE01",
"c c #FEFF01",
"v c #FFFF01",
/* pixels */
"         zcczccz                            szzzzzz         ",
"         zzzzzzz                            zzzzzzz         ",
"         zzzzzzz                            zzzzzzz         ",
"         zzzzzzz                            zzzzzzz         ",
"     zzzzzzzczzz                            zzzzzczzzzz     ",
"    zzzzzzzzzzzz                            zzzzzzzzzzzz    ",
"    zzzzzzzzzzzz                            zzzzzzzzzzcz    ",
"    zzzzzzzzzzzz                            zzzzzzzzzzzz    ",
"    zzzzzzzzzzzz                            zzzzzzzzzzzz    ",
"zzzzzzzzzzzzzzczzzzz                    zzzzzzzzzzzczzzzzzzz",
"zzzzzzzzzzzzzzzzzzzz                    zzzzzzzzzzzzzzzzzzzz",
"zzzzzzzzzzzzzzzzzzzz                    zzzzszzzzzzzzzzzzzzz",
"zzzzzzzzzzzzzzzzzzzz                    zzzzszzzzzzzzzzzzzzz",
"zzzzzzzzzzzzzzzzzzzz                    zzzzzzzzzzzzzzzzzzzz",
"zzzzzzzzzzzzzzzzzzzz                    zzzzzzzzzzzzzzzzzczz",
"zzzzzzzzzzzzzzzzzzzz                    zzzzzzzzzszzzzzzcczz",
"zzzzzzzzzzzzzzzzzzzz                    zzzzzzzzzszzzzzzzzzz",
"zzzczzzzzzzzzzzzzzzczzz              zzzzzzzzzzzzzzczczzzzzz",
"zzzczzzzzzzzzzzzzzzzzzzz            zzzzzzzzzzzszzzzsczzzzzz",
"zzzzzzzzzzzzszzzzzzzzzzzz          zzzzzzzzzzzzzzzzzzzzzzzzz",
"zzzzzczzzzzzzzzzzzzzzzzzz          zzzzzzzzzzzzzzzzzzzzczzzz",
"zzzzzzzzzzzzzzzzzzzzszzzz          zzzzzzzzzzzzzzzzzzzzzzzzz",
"zzzzzzzczzzzzzzczzzzzzzzz          zzzzzzzzzzzzzzzzzzzzzzzzz",
"zzzzzzczzzzzzzzzzzzzzzzzz          zzzzzzzczzzzzzzzzzzzzzzzz",
"zzzzzzzszzzzzszzzzzzzzzzz          zzzzzzzzzzszzszzzzzzzzzzz",
"zzzzzzzzzzzzzzzzzzzzzzzzz          zzzzzzzzzzzzzzzzzzzzzzzzz",
"czzzzzzzzczzzzzzzzzzzzzz            zzzzzzzzzzzzzzzzzzzzzzzz",
"zzzzzzzzzzzzzzzzzzzzzzzzzzzzz  zzzzzzzzzzssz9,*>&4rzzzzzzzzz",
"zzzzzzzzzzzzzzzzzzzzzzzzzzzzz  zzzzzzzzzzzsz7%X+.;0zszzzzzzz",
"zzzzzzzzzzzzzzzzzzzzzzzczzzzz  zzzzzszzzzzsz6@.o.=qzuzzzzzzz",
"zzzzzzzzzzzzzzzzzzzzzzzzzzzzz  zzzzzzzzzzzsz7#.O.=qzuzzzzzzz",
"zzzzzzzzzzzzzzzzzzczzzzzzzzzzzzzzzzzzzzzzzsz6$o+.>0zzzzzszzz",
"zzzzzzzzzzzzzzzzzzzzzzzzzzzzzzzzzzzzcczzczsz0412<8uzzzzzzzzz",
"zzzzzzzzzzzzzzcsszzzzzzzzzzzzzzzzszzzzzzzzzzsrrrrrzzzzzzzzzz",
"zzzzzzzzzzzzzzzszzzzzzzzczzzzzzzzzzzzzzzzzzzzzzzzzzzzzzzzzzz",
"zzzzzzzzzzzzzzzzzczzzzzzzzzczzzzzzzzzczzzzzzzsszsszzzzzzzzzz",
"zzzzzzzzszzzzzzzzzzzzzzzzzzzzzzzzzzzzzzzzzzzzszzzzzszzzzzzzz",
"szzzzzzzzzzzzzzzzzzzzzzzzzzzzzzzzzzzzzzzzzzzzzzzzzzzzzzzzzzz",
"zzzzzzzzzzzzzzzzzzzczzzzzzzzzzzzzzzzzzzszzzzzzzzzzzzzcczzzzz",
"zzszzzzzzzzzzzzzzzzzzzzzzzzzzzzzzzzzzzzzzzzzzzzzzczzzzzzzzzz",
"zczzzzzzzzzzzzzzzzzzzzzzzzzczzzzzzzzzzzzzzzzzzzszzzzzzzzzzzz",
"zzczzzzzzzzzzzzzzzzzzzzzzzzzzzzzzzzzzzzzzzzzzzzzzzzzzzzzzzzz",
"zzzzzzzzzzzzzzzzzzzzczzzzzzzszzzzzzzzzzzzzzzzzzzzzzzzzzszzzz",
"zzczzzzzzzzzzzzzzzzzzzzzzzczzzzzszzszzzzzzzzzzzzzzzzzzzzzzzz",
"   zzzzzzzzzzzzzzzzzzzzzzzcczzzzzzzszzzzzzzzzzzzzzzzzzzzz   ",
"    zzzzzzzzszzzzzzzzzzzzzzzzzzzzzzzzszzzzzzzzzzzzzzzzzz    ",
"    zzzczzzzzzzzzzzzzzzzzzzzzzzzzzzzzzzzzzzzzzzzzzzzzzzz    ",
"    zzzzzzzzszzzzzzzzzzzzzzzzzzzzzzzzzzzzzzzzzzzzzzzzzzz    ",
"     zzzzzzzzzzzzzzzzzzzzzszzzzzzzzzzzzzzzzzzzzzzzzzzcz     ",
"        zzzzzzzzczczzzczzzzzczzczzzzzzzzzzzzzzzzzzzz        ",
"        zzzzczzzzzzzzzzzzzczzzzzzzzzzzzzzzzzzzzzzzzz        ",
"        zzzzzzzzzzzzzzzzzzzzzzzzzzzzzzzzzzzzzzzzzzzz        ",
"         zzzzzzzzzzzzzzzzzzzzcczzzzzzzzzzzzczzzzzzz         ",
"             zzzzczzzzzzzzzzzzzzzzzzzzczzzzzzzz             ",
"             zzzzzzzzzzzzzzzzzzzzzzzzzzzzzzzzzz             ",
"             zzzzzzzzczzzzzzzzzzzzzzzzzzczzcczz             ",
"             zzzzzzzczzzzzzzzzzzzzzzzzzzzczzzzz             ",
"             zzzzzzzzzzzzzzzzzzzzzzzzzzzzzzzzzz             "
};
