/* XPM */
static char *Rm90b3JhbS5pbyslMjgxJTI5[] = {
/* columns rows colors chars-per-pixel */
"60 58 50 1 ",
"  c black",
". c #1C1D00",
"X c #2B2B00",
"o c #2E2E00",
"O c #403F00",
"+ c #404000",
"@ c #5C5C00",
"# c #636300",
"$ c #676700",
"% c #6B6B00",
"& c #A4A400",
"* c #A7A800",
"= c #A8A800",
"- c #A9A900",
"; c #ACAC00",
": c #AFAF00",
"> c #B0B000",
", c #BABB00",
"< c #C6C600",
"1 c #C8C800",
"2 c #CCCB00",
"3 c #D1D100",
"4 c #DEDE00",
"5 c #DFDF00",
"6 c #E1E100",
"7 c #EEEE00",
"8 c #F2F200",
"9 c #F3F300",
"0 c #F4F400",
"q c #F7F700",
"w c #F8F800",
"e c #F9F900",
"r c #F8F801",
"t c #FAFA00",
"y c #FAFB00",
"u c #FDFC00",
"i c #FCFD00",
"p c #FDFD00",
"a c #FEFD00",
"s c #FFFD00",
"d c #FFFD01",
"f c #FDFF00",
"g c #FEFE00",
"h c #FFFE00",
"j c #FEFF00",
"k c yellow",
"l c #FFFE01",
"z c #FEFF01",
"x c #FFFF01",
"c c None",
/* pixels */
"ccccccccccccckkkkkkkkkkkdkkkkkkkkkkkkkkkkkkkkkkccccccccccccc",
"ccccccccccccckkkkkkkkkkkkkkkkkkkkkkkkkkkkkkkkkkccccccccccccc",
"ccccccccccccckkkkkkkkkkkkkdkkkkkkkkkkkkkkkzzkkkccccccccccccc",
"ccccccccccccckkkkkkkkkkkkkkkkkkkkzzkzkkkkkkkkkkccccccccccccc",
"ccccccccccccckkkkkkkkkkkkkkkkkkkkkkkkkkkkkkkkkkccccccccccccc",
"ccccccccckkkkkkkkkkkkkkkkkkkkkdkkkkkkkkkzkzzdkkkkkkccccccccc",
"cccccccckkkkkkkkkkkkkkkkkkkkkkkkkkkkkkkkzkkkkkkzkkkkcccccccc",
"cccccccckkkkkkkkkkkkkkkkkkkkkkkkkkkkkkkkkkkkkkkkkkkkcccccccc",
"cccccccckkkkkkkkkkkkkkkkkkkkkkkdkdzkkkkkkkkkkkkkkkkkcccccccc",
"ccccckkkkkkkkkkkkkkkkkkkkkkkkkkkkkzkkkkkkkkzkkkkkkkkkkkccccc",
"cccckkkkkkkkkkkkkkkkkkkkkkkkkkkkkkkkkkkkkkkkkdkkkkkkkkkkcccc",
"cccckkkkkkkkkkkkkkkkkkkkkkkkkkkkkkkkkkkkkkkkkkkkkkkkkkkkcccc",
"cccckkkkkkkkkkkkkkkkkkkkkkkkkkkkkkkkkkkkkkkkkkkkkkkkkkkkcccc",
"ccckkkkkkkkkkkkkkkkkkzkkkzdkkkkkddkkkkkkkkkkkkkkkkkkkkkkkccc",
"kkkkkkkkkkkkkkkkkkkkkkkkkzdkkkkkkdkkkkkkkzkkkkkkkkkkkkkkkkkk",
"kkkkkkkkkkkkkkkkkkkkkkkkkkkkkkkkkkkkkkkkkkkkkkkkkkkkkkkkkkkk",
"kkdkkkkkkkkkkdkkkkkzkkkkkkkkkkkkkkkkkkkkkkkkkkkkkkkkkkkkkkkk",
"kkkkkkkkzkkkkdkkkkzzkkkkkkzkkkkkkkkkkkkkkkkkkkkkkkkkkkkkkkkk",
"kkkkkkkkkkkkkkkkkkdkkkkkkkkkkkkkkkkkkkkkkkkkkkkkkkkkkkkkkkkk",
"kkkkkkkkkkkkkkkkkkkkkkkkkkkkkkkzkkkkkkkkzkdkkkkkkkkkkkkkkkkk",
"kkkkkkkkkkzkkkkkkkkkkkkkzkkdkkdkkkkkkkkkkkkkkkkkkkkkkkkkkkkk",
"kzkkkkkkkkkkkkkkzkkkkkkkkkkkkkkkdkkkkkkkkdkkkkkkkkkkkkkdzkkk",
"kkkkkkkkkkzzkyykkkkkkkkkkkkkkkkzdkkkkkkkkddkkkkkkkdkkkkkkkkk",
"kkkkdkkkzzkzkkkkzzkkkkkkkkkkkkkkkkkkkdkkkkkkkkkkkkkkkkkkkkkk",
"kkkkkkkkkky0ryydkkkkkkkkkkkkkkkdkkkkkkkkkkkkkkkkkkkkkkkkkkkk",
"kkkkkkkyky6<2<39kkkkkkkkkkkkkkkkkkkkkkkkkkkkddkkkkkkkkkkkkkk",
"zkkzkkkyk9: OX$4kykkkkkkkkkkkkkkkkkkkkkkkkkkkkkkzkkkkzkkkkkk",
"kkkkkkkdk0- o #4kkkkkkkkkkkkkcckkkkkkkkkkkkkkkkkkkkkkkkkkkkk",
"kkkkkkkyk9* X @4kkkkkkkkkkkkkcckkkdkkkkkkkkkkkkkkkkkkkkkkkkk",
"kkkkkkkkk9; O.%4kykkkkkkkkkkkcckkkkkdkkkkkkkkkkkkkkkkkkkkkkk",
"kkkkkkkkky3&>*,7kdkkkkkkkkkkkcckkkkkkkkzkkkkkkkzkkkkkkkkkkkk",
"dkkkkkkkdkkkkkkkkkkkkkkkcccccccccccckkkkkkkkkkkkkkkkkkzkkkkk",
"kkdkkkkkkkkzykdkkkkkkkkkkcccccccccckkkkkkkkkkkkkkkkkkkkkkkkk",
"kkkkkkkkkkkkkkyzkkkkkkkkkcccccccccckkkkkkkkkkkkkkkkkkkkkkkdk",
"kkkkkkkkkkdkkkkkkdkkkkkkkcccccccccckkkkkkkdkkkkkkkkkkkkkkkkk",
"kkkkkkkkkkkkkkkkkkkkkkkkkcccccccccckkkkkkkkkkkkkkkkkkkkkkkkk",
"kkkkkkkkkkkkkkkkkkkkkkkkkcccccccccckkkkkdkkdkkkkkkkkkkkkkkkk",
"kkkkdkkkkdkkkkkkkkkkkkkkkcccccccccckkkkkkkkkkkkkdkkkkkdkkkkk",
"kkkkkkkkkkkkdkkkkkkkkkkkkcccccccccckkkkkkkkkkkkzkkkkkkkkkkkk",
"kkkkkkkkkkkkkkkkkkkkkkkkcccccccccccckkkkkkkkkkkkkkkkdkkkkkkk",
"kkzkkzkkkkkkkkkkkkkdkkkcccccccccccccckkkkkkkkkkkkkkkkkkkdkkk",
"kkkkkkkzkkkkkkkkkkkkcccccccccccccccccccckkkkkkkkkkkkkkkkkkkk",
"kkdkkkkkkkdkkkkkkkkkcccccccccccccccccccckkkkkkkkkkkkkkkkkkkk",
"kkkkkkkkkkkkkkkkkkkkcccccccccccccccccccckkzkkkkkkkkkkkkkkkkk",
"kkkkdkkkkkkkkkkkkkkkcccccccccccccccccccckkykkkkkkkkkkkkkkkkk",
"kkkkkkkkkkkkkkkkkkkkcccccccccccccccccccckkkkkkkkkkdkkkkkdkkk",
"kkkkkkzkkkkkzkkzkkkkcccccccccccccccccccckkkkzkkkkkkkkkkkkkkk",
"kkkkkkzzkkkkkdkzkkkkcccccccccccccccccccckkkkkkkkkkkkkkkkkkkk",
"kkkkkkkkkkkkkkkkkkkkcccccccccccccccccccckkkkkkkkkkkkkkkkkkkk",
"cccckkkkkkkkkkkkcccccccccccccccccccccccccccckkkkkkkkkkkkcccc",
"cccckkkkkkkkkkkkcccccccccccccccccccccccccccckkkkkkkkkkkkcccc",
"cccckkkkkkkkkkkkcccccccccccccccccccccccccccckkkkkkkkkkkkcccc",
"cccckkkkkkkkkkkkcccccccccccccccccccccccccccckkkkdkkkkkkkcccc",
"ccccckkkkkkkkkkkcccccccccccccccccccccccccccckkkkkdkkkkkccccc",
"ccccccccckkkkkkkcccccccccccccccccccccccccccckkkkdkkccccccccc",
"ccccccccckkdkkkkcccccccccccccccccccccccccccckkkkkkkccccccccc",
"ccccccccckkkkkkkcccccccccccccccccccccccccccckkkkkkkccccccccc",
"ccccccccckkkkddkcccccccccccccccccccccccccccckkkkkdkccccccccc"
};
